<mxfile host="app.diagrams.net" modified="2023-07-24T22:35:34.199Z" agent="Mozilla/5.0 (X11; Ubuntu; Linux x86_64; rv:109.0) Gecko/20100101 Firefox/115.0" etag="QZ9SgF51rCJrQICb747x" version="21.3.5" type="device">
  <diagram id="C5RBs43oDa-KdzZeNtuy" name="Page-1">
    <mxGraphModel dx="806" dy="483" grid="1" gridSize="10" guides="1" tooltips="1" connect="1" arrows="1" fold="1" page="1" pageScale="1" pageWidth="2336" pageHeight="1654" math="0" shadow="0">
      <root>
        <mxCell id="WIyWlLk6GJQsqaUBKTNV-0" />
        <mxCell id="WIyWlLk6GJQsqaUBKTNV-1" parent="WIyWlLk6GJQsqaUBKTNV-0" />
        <mxCell id="zkfFHV4jXpPFQw0GAbJ--0" value="tcp server" style="swimlane;fontStyle=2;align=center;verticalAlign=top;childLayout=stackLayout;horizontal=1;startSize=26;horizontalStack=0;resizeParent=1;resizeLast=0;collapsible=1;marginBottom=0;rounded=0;shadow=0;strokeWidth=1;" parent="WIyWlLk6GJQsqaUBKTNV-1" vertex="1">
          <mxGeometry x="876" y="409" width="160" height="138" as="geometry">
            <mxRectangle x="230" y="140" width="160" height="26" as="alternateBounds" />
          </mxGeometry>
        </mxCell>
        <mxCell id="YZWMGcb8RzanFTkR5Yxw-0" value="&lt;&lt;setRegister&gt;&gt;" style="swimlane;fontStyle=2;align=center;verticalAlign=top;childLayout=stackLayout;horizontal=1;startSize=26;horizontalStack=0;resizeParent=1;resizeLast=0;collapsible=1;marginBottom=0;rounded=0;shadow=0;strokeWidth=1;fillStyle=hatch;fillColor=#fa6800;fontColor=#000000;strokeColor=#C73500;" vertex="1" parent="WIyWlLk6GJQsqaUBKTNV-1">
          <mxGeometry x="1076" y="409" width="160" height="138" as="geometry">
            <mxRectangle x="230" y="140" width="160" height="26" as="alternateBounds" />
          </mxGeometry>
        </mxCell>
        <mxCell id="YZWMGcb8RzanFTkR5Yxw-38" value="+ set( variable_path) = 0" style="text;strokeColor=none;fillColor=none;align=left;verticalAlign=top;spacingLeft=4;spacingRight=4;overflow=hidden;rotatable=0;points=[[0,0.5],[1,0.5]];portConstraint=eastwest;whiteSpace=wrap;html=1;" vertex="1" parent="YZWMGcb8RzanFTkR5Yxw-0">
          <mxGeometry y="26" width="160" height="26" as="geometry" />
        </mxCell>
        <mxCell id="YZWMGcb8RzanFTkR5Yxw-1" value="&lt;&lt;getRegister&gt;&gt;" style="swimlane;fontStyle=2;align=center;verticalAlign=top;childLayout=stackLayout;horizontal=1;startSize=26;horizontalStack=0;resizeParent=1;resizeLast=0;collapsible=1;marginBottom=0;rounded=0;shadow=0;strokeWidth=1;fillStyle=hatch;fillColor=#fa6800;fontColor=#000000;strokeColor=#C73500;" vertex="1" parent="WIyWlLk6GJQsqaUBKTNV-1">
          <mxGeometry x="1256" y="409" width="160" height="138" as="geometry">
            <mxRectangle x="230" y="140" width="160" height="26" as="alternateBounds" />
          </mxGeometry>
        </mxCell>
        <mxCell id="YZWMGcb8RzanFTkR5Yxw-37" value="+ get( variable_path) = 0" style="text;strokeColor=none;fillColor=none;align=left;verticalAlign=top;spacingLeft=4;spacingRight=4;overflow=hidden;rotatable=0;points=[[0,0.5],[1,0.5]];portConstraint=eastwest;whiteSpace=wrap;html=1;" vertex="1" parent="YZWMGcb8RzanFTkR5Yxw-1">
          <mxGeometry y="26" width="160" height="26" as="geometry" />
        </mxCell>
        <mxCell id="YZWMGcb8RzanFTkR5Yxw-2" value="register" style="swimlane;fontStyle=2;align=center;verticalAlign=top;childLayout=stackLayout;horizontal=1;startSize=26;horizontalStack=0;resizeParent=1;resizeLast=0;collapsible=1;marginBottom=0;rounded=0;shadow=0;strokeWidth=1;" vertex="1" parent="WIyWlLk6GJQsqaUBKTNV-1">
          <mxGeometry x="1156" y="627" width="160" height="138" as="geometry">
            <mxRectangle x="230" y="140" width="160" height="26" as="alternateBounds" />
          </mxGeometry>
        </mxCell>
        <mxCell id="YZWMGcb8RzanFTkR5Yxw-6" style="edgeStyle=orthogonalEdgeStyle;html=1;labelBackgroundColor=none;startFill=0;endArrow=block;endFill=0;endSize=19;fontFamily=Verdana;fontSize=10;dashed=1;startSize=9;fillColor=#d80073;strokeColor=#A50040;rounded=0;fontColor=default;shape=connector;strokeWidth=2;exitX=0.25;exitY=0;exitDx=0;exitDy=0;entryX=0.25;entryY=1;entryDx=0;entryDy=0;" edge="1" parent="WIyWlLk6GJQsqaUBKTNV-1" source="YZWMGcb8RzanFTkR5Yxw-2" target="YZWMGcb8RzanFTkR5Yxw-0">
          <mxGeometry relative="1" as="geometry">
            <mxPoint x="1125" y="599" as="sourcePoint" />
            <mxPoint x="1066" y="579" as="targetPoint" />
            <Array as="points">
              <mxPoint x="1196" y="599" />
              <mxPoint x="1116" y="599" />
            </Array>
          </mxGeometry>
        </mxCell>
        <mxCell id="YZWMGcb8RzanFTkR5Yxw-7" style="edgeStyle=orthogonalEdgeStyle;html=1;labelBackgroundColor=none;startFill=0;endArrow=block;endFill=0;endSize=19;fontFamily=Verdana;fontSize=10;dashed=1;startSize=9;fillColor=#d80073;strokeColor=#A50040;rounded=0;fontColor=default;shape=connector;strokeWidth=2;exitX=0.75;exitY=0;exitDx=0;exitDy=0;entryX=0.25;entryY=1;entryDx=0;entryDy=0;" edge="1" parent="WIyWlLk6GJQsqaUBKTNV-1" source="YZWMGcb8RzanFTkR5Yxw-2" target="YZWMGcb8RzanFTkR5Yxw-1">
          <mxGeometry relative="1" as="geometry">
            <mxPoint x="1262" y="623" as="sourcePoint" />
            <mxPoint x="1182" y="543" as="targetPoint" />
            <Array as="points">
              <mxPoint x="1276" y="599" />
              <mxPoint x="1296" y="599" />
            </Array>
          </mxGeometry>
        </mxCell>
        <mxCell id="YZWMGcb8RzanFTkR5Yxw-8" style="edgeStyle=orthogonalEdgeStyle;rounded=0;orthogonalLoop=1;jettySize=auto;html=1;endSize=20;endArrow=diamondThin;endFill=1;entryX=0.5;entryY=0;entryDx=0;entryDy=0;exitX=0.25;exitY=0;exitDx=0;exitDy=0;" edge="1" parent="WIyWlLk6GJQsqaUBKTNV-1" source="YZWMGcb8RzanFTkR5Yxw-0" target="zkfFHV4jXpPFQw0GAbJ--0">
          <mxGeometry relative="1" as="geometry">
            <mxPoint x="1056" y="369" as="targetPoint" />
            <mxPoint x="1136" y="369" as="sourcePoint" />
            <Array as="points">
              <mxPoint x="1116" y="339" />
              <mxPoint x="956" y="339" />
            </Array>
          </mxGeometry>
        </mxCell>
        <mxCell id="YZWMGcb8RzanFTkR5Yxw-9" value="safeMap" style="swimlane;fontStyle=2;align=center;verticalAlign=top;childLayout=stackLayout;horizontal=1;startSize=26;horizontalStack=0;resizeParent=1;resizeLast=0;collapsible=1;marginBottom=0;rounded=0;shadow=0;strokeWidth=1;" vertex="1" parent="WIyWlLk6GJQsqaUBKTNV-1">
          <mxGeometry x="1156" y="816" width="160" height="138" as="geometry">
            <mxRectangle x="230" y="140" width="160" height="26" as="alternateBounds" />
          </mxGeometry>
        </mxCell>
        <mxCell id="YZWMGcb8RzanFTkR5Yxw-35" value="&lt;div align=&quot;left&quot;&gt;-map&amp;lt;path , float&amp;gt;&lt;br&gt;&lt;/div&gt;" style="text;html=1;align=center;verticalAlign=middle;resizable=0;points=[];autosize=1;strokeColor=none;fillColor=none;" vertex="1" parent="YZWMGcb8RzanFTkR5Yxw-9">
          <mxGeometry y="26" width="160" height="30" as="geometry" />
        </mxCell>
        <mxCell id="YZWMGcb8RzanFTkR5Yxw-10" style="edgeStyle=orthogonalEdgeStyle;rounded=0;orthogonalLoop=1;jettySize=auto;html=1;endSize=20;endArrow=diamondThin;endFill=1;entryX=0.5;entryY=1;entryDx=0;entryDy=0;exitX=0.5;exitY=0;exitDx=0;exitDy=0;" edge="1" parent="WIyWlLk6GJQsqaUBKTNV-1" source="YZWMGcb8RzanFTkR5Yxw-9" target="YZWMGcb8RzanFTkR5Yxw-2">
          <mxGeometry relative="1" as="geometry">
            <mxPoint x="1096" y="699" as="targetPoint" />
            <mxPoint x="1006" y="699" as="sourcePoint" />
            <Array as="points">
              <mxPoint x="1236" y="769" />
              <mxPoint x="1236" y="769" />
            </Array>
          </mxGeometry>
        </mxCell>
        <mxCell id="YZWMGcb8RzanFTkR5Yxw-11" value="simulator &lt;br&gt;flightGear" style="ellipse;whiteSpace=wrap;html=1;" vertex="1" parent="WIyWlLk6GJQsqaUBKTNV-1">
          <mxGeometry x="1130" y="200" width="120" height="80" as="geometry" />
        </mxCell>
        <mxCell id="YZWMGcb8RzanFTkR5Yxw-12" style="edgeStyle=orthogonalEdgeStyle;rounded=0;orthogonalLoop=1;jettySize=auto;html=1;labelBackgroundColor=default;strokeColor=#A7FFA1;fontFamily=Helvetica;fontSize=11;fontColor=default;endArrow=none;endFill=0;endSize=20;fillColor=#008a00;targetPerimeterSpacing=19;startSize=17;strokeWidth=2;entryX=0;entryY=0.5;entryDx=0;entryDy=0;exitX=0;exitY=0.5;exitDx=0;exitDy=0;" edge="1" parent="WIyWlLk6GJQsqaUBKTNV-1" source="YZWMGcb8RzanFTkR5Yxw-11" target="zkfFHV4jXpPFQw0GAbJ--0">
          <mxGeometry relative="1" as="geometry">
            <mxPoint x="816" y="649" as="sourcePoint" />
            <mxPoint x="1393" y="559" as="targetPoint" />
            <Array as="points">
              <mxPoint x="816" y="240" />
              <mxPoint x="816" y="469" />
              <mxPoint x="876" y="469" />
            </Array>
          </mxGeometry>
        </mxCell>
        <mxCell id="YZWMGcb8RzanFTkR5Yxw-13" value="tcp client" style="swimlane;fontStyle=2;align=center;verticalAlign=top;childLayout=stackLayout;horizontal=1;startSize=26;horizontalStack=0;resizeParent=1;resizeLast=0;collapsible=1;marginBottom=0;rounded=0;shadow=0;strokeWidth=1;" vertex="1" parent="WIyWlLk6GJQsqaUBKTNV-1">
          <mxGeometry x="1419" y="205" width="160" height="138" as="geometry">
            <mxRectangle x="230" y="140" width="160" height="26" as="alternateBounds" />
          </mxGeometry>
        </mxCell>
        <mxCell id="YZWMGcb8RzanFTkR5Yxw-15" style="edgeStyle=orthogonalEdgeStyle;rounded=0;orthogonalLoop=1;jettySize=auto;html=1;labelBackgroundColor=default;strokeColor=#A7FFA1;fontFamily=Helvetica;fontSize=11;fontColor=default;endArrow=none;endFill=0;endSize=20;fillColor=#008a00;targetPerimeterSpacing=19;startSize=17;strokeWidth=2;exitX=1;exitY=0.5;exitDx=0;exitDy=0;entryX=0;entryY=0.25;entryDx=0;entryDy=0;" edge="1" parent="WIyWlLk6GJQsqaUBKTNV-1" source="YZWMGcb8RzanFTkR5Yxw-11" target="YZWMGcb8RzanFTkR5Yxw-13">
          <mxGeometry relative="1" as="geometry">
            <mxPoint x="1713.9299999999998" y="240" as="sourcePoint" />
            <mxPoint x="1450" y="240" as="targetPoint" />
            <Array as="points">
              <mxPoint x="1419" y="240" />
            </Array>
          </mxGeometry>
        </mxCell>
        <mxCell id="YZWMGcb8RzanFTkR5Yxw-17" value="interperter" style="swimlane;fontStyle=2;align=center;verticalAlign=top;childLayout=stackLayout;horizontal=1;startSize=26;horizontalStack=0;resizeParent=1;resizeLast=0;collapsible=1;marginBottom=0;rounded=0;shadow=0;strokeWidth=1;" vertex="1" parent="WIyWlLk6GJQsqaUBKTNV-1">
          <mxGeometry x="1660" y="400" width="160" height="138" as="geometry">
            <mxRectangle x="230" y="140" width="160" height="26" as="alternateBounds" />
          </mxGeometry>
        </mxCell>
        <mxCell id="YZWMGcb8RzanFTkR5Yxw-18" value="tokenzer" style="swimlane;fontStyle=2;align=center;verticalAlign=top;childLayout=stackLayout;horizontal=1;startSize=26;horizontalStack=0;resizeParent=1;resizeLast=0;collapsible=1;marginBottom=0;rounded=0;shadow=0;strokeWidth=1;" vertex="1" parent="WIyWlLk6GJQsqaUBKTNV-1">
          <mxGeometry x="1970" y="160" width="160" height="138" as="geometry">
            <mxRectangle x="230" y="140" width="160" height="26" as="alternateBounds" />
          </mxGeometry>
        </mxCell>
        <mxCell id="YZWMGcb8RzanFTkR5Yxw-22" value="smart variable" style="swimlane;fontStyle=2;align=center;verticalAlign=top;childLayout=stackLayout;horizontal=1;startSize=26;horizontalStack=0;resizeParent=1;resizeLast=0;collapsible=1;marginBottom=0;rounded=0;shadow=0;strokeWidth=1;" vertex="1" parent="WIyWlLk6GJQsqaUBKTNV-1">
          <mxGeometry x="1650" y="710" width="160" height="140" as="geometry">
            <mxRectangle x="230" y="140" width="160" height="26" as="alternateBounds" />
          </mxGeometry>
        </mxCell>
        <mxCell id="YZWMGcb8RzanFTkR5Yxw-36" value="&lt;div align=&quot;left&quot;&gt;- m_variable_name&lt;br&gt;&lt;div align=&quot;left&quot;&gt;- m_variable_path&lt;/div&gt;&lt;/div&gt;" style="rounded=1;whiteSpace=wrap;html=1;align=left;" vertex="1" parent="YZWMGcb8RzanFTkR5Yxw-22">
          <mxGeometry y="26" width="160" height="114" as="geometry" />
        </mxCell>
        <mxCell id="YZWMGcb8RzanFTkR5Yxw-23" value="&amp;lt;&amp;lt;variable&amp;gt;&amp;gt;" style="swimlane;fontStyle=0;childLayout=stackLayout;horizontal=1;startSize=26;fillColor=#fa6800;horizontalStack=0;resizeParent=1;resizeParentMax=0;resizeLast=0;collapsible=1;marginBottom=0;whiteSpace=wrap;html=1;fontColor=#000000;strokeColor=#C73500;fillStyle=hatch;" vertex="1" parent="WIyWlLk6GJQsqaUBKTNV-1">
          <mxGeometry x="1830" y="599" width="140" height="78" as="geometry" />
        </mxCell>
        <mxCell id="YZWMGcb8RzanFTkR5Yxw-24" value="+ set()=0" style="text;strokeColor=none;fillColor=none;align=left;verticalAlign=top;spacingLeft=4;spacingRight=4;overflow=hidden;rotatable=0;points=[[0,0.5],[1,0.5]];portConstraint=eastwest;whiteSpace=wrap;html=1;" vertex="1" parent="YZWMGcb8RzanFTkR5Yxw-23">
          <mxGeometry y="26" width="140" height="26" as="geometry" />
        </mxCell>
        <mxCell id="YZWMGcb8RzanFTkR5Yxw-25" value="+ get()=0" style="text;strokeColor=none;fillColor=none;align=left;verticalAlign=top;spacingLeft=4;spacingRight=4;overflow=hidden;rotatable=0;points=[[0,0.5],[1,0.5]];portConstraint=eastwest;whiteSpace=wrap;html=1;" vertex="1" parent="YZWMGcb8RzanFTkR5Yxw-23">
          <mxGeometry y="52" width="140" height="26" as="geometry" />
        </mxCell>
        <mxCell id="YZWMGcb8RzanFTkR5Yxw-27" style="edgeStyle=orthogonalEdgeStyle;html=1;labelBackgroundColor=none;startFill=0;endArrow=block;endFill=0;endSize=19;fontFamily=Verdana;fontSize=10;dashed=1;entryX=0;entryY=0.25;entryDx=0;entryDy=0;startSize=9;fillColor=#d80073;strokeColor=#A50040;rounded=0;fontColor=default;shape=connector;strokeWidth=2;exitX=0.5;exitY=0;exitDx=0;exitDy=0;" edge="1" parent="WIyWlLk6GJQsqaUBKTNV-1" source="YZWMGcb8RzanFTkR5Yxw-22" target="YZWMGcb8RzanFTkR5Yxw-23">
          <mxGeometry relative="1" as="geometry">
            <mxPoint x="1759" y="638.5" as="sourcePoint" />
            <mxPoint x="1630" y="638.5" as="targetPoint" />
          </mxGeometry>
        </mxCell>
        <mxCell id="YZWMGcb8RzanFTkR5Yxw-28" value="local variable" style="swimlane;fontStyle=2;align=center;verticalAlign=top;childLayout=stackLayout;horizontal=1;startSize=26;horizontalStack=0;resizeParent=1;resizeLast=0;collapsible=1;marginBottom=0;rounded=0;shadow=0;strokeWidth=1;" vertex="1" parent="WIyWlLk6GJQsqaUBKTNV-1">
          <mxGeometry x="2000" y="710" width="160" height="140" as="geometry">
            <mxRectangle x="230" y="140" width="160" height="26" as="alternateBounds" />
          </mxGeometry>
        </mxCell>
        <mxCell id="YZWMGcb8RzanFTkR5Yxw-33" value="&lt;div align=&quot;left&quot;&gt;&lt;br&gt;- m_variable_type&lt;/div&gt;&lt;div align=&quot;left&quot;&gt;- m_variable_name&lt;/div&gt;" style="rounded=1;whiteSpace=wrap;html=1;align=left;" vertex="1" parent="YZWMGcb8RzanFTkR5Yxw-28">
          <mxGeometry y="26" width="160" height="114" as="geometry" />
        </mxCell>
        <mxCell id="YZWMGcb8RzanFTkR5Yxw-29" style="edgeStyle=orthogonalEdgeStyle;html=1;labelBackgroundColor=none;startFill=0;endArrow=block;endFill=0;endSize=19;fontFamily=Verdana;fontSize=10;dashed=1;entryX=1;entryY=0.25;entryDx=0;entryDy=0;startSize=9;fillColor=#d80073;strokeColor=#A50040;rounded=0;fontColor=default;shape=connector;strokeWidth=2;exitX=0.5;exitY=0;exitDx=0;exitDy=0;" edge="1" parent="WIyWlLk6GJQsqaUBKTNV-1" source="YZWMGcb8RzanFTkR5Yxw-28" target="YZWMGcb8RzanFTkR5Yxw-23">
          <mxGeometry relative="1" as="geometry">
            <mxPoint x="2169" y="624" as="sourcePoint" />
            <mxPoint x="2040" y="624" as="targetPoint" />
            <Array as="points">
              <mxPoint x="2080" y="621" />
              <mxPoint x="2040" y="621" />
            </Array>
          </mxGeometry>
        </mxCell>
        <mxCell id="YZWMGcb8RzanFTkR5Yxw-30" style="edgeStyle=orthogonalEdgeStyle;rounded=0;orthogonalLoop=1;jettySize=auto;html=1;labelBackgroundColor=default;strokeColor=#A7FFA1;fontFamily=Helvetica;fontSize=11;fontColor=default;endArrow=none;endFill=0;endSize=20;fillColor=#008a00;targetPerimeterSpacing=19;startSize=17;strokeWidth=2;entryX=0;entryY=0.25;entryDx=0;entryDy=0;exitX=0.75;exitY=1;exitDx=0;exitDy=0;" edge="1" parent="WIyWlLk6GJQsqaUBKTNV-1" source="YZWMGcb8RzanFTkR5Yxw-13" target="YZWMGcb8RzanFTkR5Yxw-22">
          <mxGeometry relative="1" as="geometry">
            <mxPoint x="1460" y="560" as="sourcePoint" />
            <mxPoint x="2157" y="800" as="targetPoint" />
            <Array as="points">
              <mxPoint x="1539" y="745" />
            </Array>
          </mxGeometry>
        </mxCell>
        <mxCell id="YZWMGcb8RzanFTkR5Yxw-34" style="edgeStyle=orthogonalEdgeStyle;rounded=0;orthogonalLoop=1;jettySize=auto;html=1;labelBackgroundColor=default;strokeColor=#A7FFA1;fontFamily=Helvetica;fontSize=11;fontColor=default;endArrow=none;endFill=0;endSize=20;fillColor=#008a00;targetPerimeterSpacing=19;startSize=17;strokeWidth=2;entryX=0;entryY=0.5;entryDx=0;entryDy=0;exitX=1;exitY=0.5;exitDx=0;exitDy=0;" edge="1" parent="WIyWlLk6GJQsqaUBKTNV-1" source="YZWMGcb8RzanFTkR5Yxw-1" target="YZWMGcb8RzanFTkR5Yxw-22">
          <mxGeometry relative="1" as="geometry">
            <mxPoint x="1550" y="373" as="sourcePoint" />
            <mxPoint x="1630" y="765" as="targetPoint" />
            <Array as="points">
              <mxPoint x="1480" y="478" />
              <mxPoint x="1480" y="779" />
            </Array>
          </mxGeometry>
        </mxCell>
        <mxCell id="YZWMGcb8RzanFTkR5Yxw-39" value="parser" style="swimlane;fontStyle=2;align=center;verticalAlign=top;childLayout=stackLayout;horizontal=1;startSize=26;horizontalStack=0;resizeParent=1;resizeLast=0;collapsible=1;marginBottom=0;rounded=0;shadow=0;strokeWidth=1;" vertex="1" parent="WIyWlLk6GJQsqaUBKTNV-1">
          <mxGeometry x="1700" y="160" width="160" height="140" as="geometry">
            <mxRectangle x="230" y="140" width="160" height="26" as="alternateBounds" />
          </mxGeometry>
        </mxCell>
        <mxCell id="YZWMGcb8RzanFTkR5Yxw-41" value="-map &amp;lt;variable_name , variable_object&amp;gt;" style="rounded=1;whiteSpace=wrap;html=1;align=left;" vertex="1" parent="YZWMGcb8RzanFTkR5Yxw-39">
          <mxGeometry y="26" width="160" height="114" as="geometry" />
        </mxCell>
        <mxCell id="YZWMGcb8RzanFTkR5Yxw-42" value="token" style="swimlane;fontStyle=2;align=center;verticalAlign=top;childLayout=stackLayout;horizontal=1;startSize=26;horizontalStack=0;resizeParent=1;resizeLast=0;collapsible=1;marginBottom=0;rounded=0;shadow=0;strokeWidth=1;" vertex="1" parent="WIyWlLk6GJQsqaUBKTNV-1">
          <mxGeometry x="1970" y="330" width="160" height="110" as="geometry">
            <mxRectangle x="230" y="140" width="160" height="26" as="alternateBounds" />
          </mxGeometry>
        </mxCell>
        <mxCell id="YZWMGcb8RzanFTkR5Yxw-43" value="&lt;div&gt;enum_type&lt;/div&gt;&lt;div&gt;string&lt;br&gt;&lt;/div&gt;" style="rounded=1;whiteSpace=wrap;html=1;align=left;" vertex="1" parent="YZWMGcb8RzanFTkR5Yxw-42">
          <mxGeometry y="26" width="160" height="84" as="geometry" />
        </mxCell>
        <mxCell id="YZWMGcb8RzanFTkR5Yxw-47" value="" style="rounded=1;whiteSpace=wrap;html=1;fillColor=none;dashed=1;dashPattern=12 12;fontColor=#000000;strokeColor=#B09500;" vertex="1" parent="WIyWlLk6GJQsqaUBKTNV-1">
          <mxGeometry x="1600" y="130" width="620" height="780" as="geometry" />
        </mxCell>
      </root>
    </mxGraphModel>
  </diagram>
</mxfile>
